<svg width="328" height="1473" viewBox="0 0 328 1473" fill="none" xmlns="http://www.w3.org/2000/svg">
<path d="M12.1708 2.65836L11.621 3.75805C11.5405 3.91902 11.4457 4.07243 11.3377 4.21641L10 6L8 8.5L6.15076 10.3492C6.05038 10.4496 5.943 10.5427 5.82944 10.6279L4.38947 11.7079C4.13151 11.9014 3.84405 12.052 3.53815 12.1539L3.05132 12.3162C1.82629 12.7246 1 13.871 1 15.1623V1457.65C1 1458.78 1.64201 1459.82 2.65836 1460.33L3.75805 1460.88C3.91902 1460.96 4.07243 1461.05 4.21641 1461.16L6 1462.5L8.5 1464.5L10.3492 1466.35C10.4496 1466.45 10.5427 1466.56 10.6279 1466.67L11.7079 1468.11C11.9014 1468.37 12.052 1468.66 12.1539 1468.96L12.3162 1469.45C12.7246 1470.67 13.871 1471.5 15.1623 1471.5H312.646C313.782 1471.5 314.821 1470.86 315.329 1469.84L315.879 1468.74C315.96 1468.58 316.054 1468.43 316.162 1468.28L317.5 1466.5L319.5 1464L321.349 1462.15C321.45 1462.05 321.557 1461.96 321.671 1461.87L323.111 1460.79C323.368 1460.6 323.656 1460.45 323.962 1460.35L324.449 1460.18C325.674 1459.78 326.5 1458.63 326.5 1457.34V14.8541C326.5 13.7178 325.858 12.679 324.842 12.1708L323.742 11.621C323.581 11.5405 323.428 11.4457 323.284 11.3377L321.5 10L319 8L317.151 6.15076C317.05 6.05038 316.957 5.943 316.872 5.82944L315.792 4.38947C315.599 4.13151 315.448 3.84405 315.346 3.53815L315.184 3.05132C314.775 1.82629 313.629 1 312.338 1H14.8541C13.7178 1 12.679 1.64201 12.1708 2.65836Z" stroke="#B8A99A" stroke-width="2"/>
</svg>
